HIERARCHY
ROOT reference
{
  OFFSET 0 0 0
  CHANNELS 6 Xposition Yposition Zposition Zrotation Xrotation Yrotation
  JOINT Hips
  {
    OFFSET 19.7669 81.9121 63.654
    CHANNELS 6 Xposition Yposition Zposition Zrotation Xrotation Yrotation
    JOINT Spine
    {
      OFFSET 0 7.3847 0
      CHANNELS 6 Xposition Yposition Zposition Zrotation Xrotation Yrotation
      JOINT Spine1
      {
        OFFSET 0 22.52 0
        CHANNELS 6 Xposition Yposition Zposition Zrotation Xrotation Yrotation
        JOINT Neck
        {
          OFFSET 0 22.4276 2.03887
          CHANNELS 6 Xposition Yposition Zposition Zrotation Xrotation Yrotation
          JOINT Head
          {
            OFFSET 0 12.608 -1.80115
            CHANNELS 6 Xposition Yposition Zposition Zrotation Xrotation Yrotation
            End Site
            {
              OFFSET 0 22.5143 0
            }
          }
        }
        JOINT LeftShoulder
        {
          OFFSET 3.70204 19.5563 -0.329131
          CHANNELS 6 Xposition Yposition Zposition Zrotation Xrotation Yrotation
          JOINT LeftArm
          {
            OFFSET 13.7086 0 0
            CHANNELS 6 Xposition Yposition Zposition Zrotation Xrotation Yrotation
            JOINT LeftForeArm
            {
              OFFSET 25.9307 0 0
              CHANNELS 6 Xposition Yposition Zposition Zrotation Xrotation Yrotation
              JOINT LeftHand
              {
                OFFSET 23.5097 0 0
                CHANNELS 6 Xposition Yposition Zposition Zrotation Xrotation Yrotation
                End Site
                {
                  OFFSET 13.5086 0 0
                }
              }
            }
          }
        }
        JOINT RightShoulder
        {
          OFFSET -3.48695 19.5563 -0.329131
          CHANNELS 6 Xposition Yposition Zposition Zrotation Xrotation Yrotation
          JOINT RightArm
          {
            OFFSET -13.7086 0 0
            CHANNELS 6 Xposition Yposition Zposition Zrotation Xrotation Yrotation
            JOINT RightForeArm
            {
              OFFSET -25.9307 0 0
              CHANNELS 6 Xposition Yposition Zposition Zrotation Xrotation Yrotation
              JOINT RightHand
              {
                OFFSET -23.5097 0 0
                CHANNELS 6 Xposition Yposition Zposition Zrotation Xrotation Yrotation
                End Site
                {
                  OFFSET -13.5086 0 0
                }
              }
            }
          }
        }
      }
    }
    JOINT LeftUpLeg
    {
      OFFSET 9.00574 0 0
      CHANNELS 6 Xposition Yposition Zposition Zrotation Xrotation Yrotation
      JOINT LeftLeg
      {
        OFFSET 0 -37.3387 0
        CHANNELS 6 Xposition Yposition Zposition Zrotation Xrotation Yrotation
        JOINT LeftFoot
        {
          OFFSET 0 -36.155 0
          CHANNELS 6 Xposition Yposition Zposition Zrotation Xrotation Yrotation
          JOINT LeftToeBase
          {
            OFFSET 0 -5.85373 13.5086
            CHANNELS 6 Xposition Yposition Zposition Zrotation Xrotation Yrotation
            End Site
            {
              OFFSET 0 0 3.60229
            }
          }
        }
      }
    }
    JOINT RightUpLeg
    {
      OFFSET -9.00574 0 0
      CHANNELS 6 Xposition Yposition Zposition Zrotation Xrotation Yrotation
      JOINT RightLeg
      {
        OFFSET 0 -37.3387 0
        CHANNELS 6 Xposition Yposition Zposition Zrotation Xrotation Yrotation
        JOINT RightFoot
        {
          OFFSET 0 -36.155 0
          CHANNELS 6 Xposition Yposition Zposition Zrotation Xrotation Yrotation
          JOINT RightToeBase
          {
            OFFSET 0 -5.85373 13.5086
            CHANNELS 6 Xposition Yposition Zposition Zrotation Xrotation Yrotation
            End Site
            {
              OFFSET 0 0 3.60229
            }
          }
        }
      }
    }
  }
}
MOTION
Frames:	9
Frame Time:	0.004
0 0 0 0 0 -0 9.64307 74.4154 -204.842 0.521785 2.27235 5.69532 0 7.3847 0 -2.01213 -5.46464 -0.0880372 0 22.52 0 -0.88904 -0.631883 0.00932722 -3.55271e-015 22.4276 2.03887 4.21959 19.4875 -2.64987 0 12.608 -1.80115 3.54475 -0.491914 -2.10578 3.70204 19.5563 -0.329131 18.109 -1.32194 -4.43389 13.7086 0 5.68434e-014 -28.1169 0.919715 1.01784 25.9307 0 0 3.81989 -0.98613 0.055195 23.5097 0 0 -4.61939 -0.875553 -2.78779 -3.48695 19.5563 -0.329131 -13.3614 0.85506 -1.82387 -13.7086 0 2.84217e-014 20.1871 3.04232 5.46511 -25.9307 0 2.84217e-014 -1.8237 0.074009 0.118756 -23.5097 2.84217e-014 0 -2.10252 0.04788 1.53531 9.00574 0 0 -1.18912 -5.55026 1.78279 0 -37.3387 0 -1.66489 15.4978 2.16412 -1.42109e-014 -36.155 2.84217e-014 3.41473 -12.4077 -1.95831 7.10543e-015 -5.85373 13.5086 -1.78596e-016 0 -0 -9.00574 1.42109e-014 0 -1.95783 -0.205322 -0.053607 0 -37.3387 0 8.33604 12.0271 1.79091 3.55271e-015 -36.155 0 -9.92122 -12.8778 -23.0551 -7.10543e-015 -5.85373 13.5086 1.36664e-016 -9.93923e-017 -0 
0 0 0 0 0 -0 9.64307 74.4154 -204.842 0.521785 2.27235 5.69532 0 7.3847 0 -2.01213 -5.46464 -0.0880372 0 22.52 0 -0.889042 -0.62206 0.0093272 0 22.4276 2.03887 4.21839 19.463 -2.64947 0 12.608 -1.80115 3.55134 -0.459233 -2.10577 3.70204 19.5563 -0.329131 18.1103 -1.30463 -4.43386 13.7086 0 2.84217e-014 -28.1165 0.899236 1.01784 25.9307 0 -2.84217e-014 3.73443 -1.09239 0.007131 23.5097 0 0 -4.2827 -0.989327 -2.76281 -3.48695 19.5563 -0.329131 -13.3606 0.867177 -1.81823 -13.7086 0 2.84217e-014 20.1839 3.02701 5.46666 -25.9307 0 2.84217e-014 -1.81844 0.086492 0.118756 -23.5097 0 -2.84217e-014 -2.09481 0.060514 1.5456 9.00574 0 0 -1.18912 -5.55026 1.78279 0 -37.3387 0 -1.6682 15.5047 2.17553 0 -36.155 -2.84217e-014 3.43739 -12.4078 -1.94176 0 -5.85373 13.5086 -5.73059e-016 0 -1.59028e-015 -9.00574 1.42109e-014 0 -1.95794 -0.205322 -0.082569 0 -37.3387 0 8.32925 12.0269 1.82349 3.55271e-015 -36.155 0 -9.93227 -12.8797 -23.0352 7.10543e-015 -5.85373 13.5086 -1.09332e-015 9.93923e-017 -0 
0 0 0 0 0 -0 9.64307 74.4154 -204.842 0.521785 2.27235 5.69532 0 7.3847 0 -2.01213 -5.46464 -0.0880372 0 22.52 0 -0.889041 -0.625298 0.00932721 0 22.4276 2.03887 4.21856 19.4664 -2.64953 0 12.608 -1.80115 3.5629 -0.463299 -2.10578 3.70204 19.5563 -0.329131 18.1102 -1.30675 -4.43386 13.7086 -1.42109e-014 0 -28.1166 0.897099 1.02891 25.9307 0 2.84217e-014 3.80241 -0.975481 0.056656 23.5097 -2.84217e-014 -2.84217e-014 -4.6214 -0.865179 -2.78112 -3.48695 19.5563 -0.329131 -13.3569 0.579629 -1.695 -13.7086 2.84217e-014 0 20.2414 3.64223 5.2079 -25.9307 1.42109e-014 -2.84217e-014 -2.0181 -0.104403 0.118756 -23.5097 2.84217e-014 -2.84217e-014 -1.98285 -0.129785 1.56828 9.00574 0 0 -1.18912 -5.55026 1.78279 0 -37.3387 0 -1.66355 15.4881 2.16043 0 -36.155 2.84217e-014 3.43389 -12.4078 -1.94804 7.10543e-015 -5.85373 13.5086 2.6867e-016 -2.48481e-017 -7.95139e-016 -9.00574 1.42109e-014 0 -1.95781 -0.205322 -0.046037 0 -37.3387 2.84217e-014 8.33539 12.0271 1.79402 -3.55271e-015 -36.155 0 -9.90769 -12.8817 -23.0377 0 -5.85373 13.5086 -3.23025e-016 0 -0 
0 0 0 0 0 -0 9.64307 74.4154 -204.84 0.521785 2.27235 5.69532 0 7.3847 0 -2.01213 -5.46464 -0.0880372 0 22.52 2.84217e-014 -0.889423 -0.624349 0.00932721 0 22.4276 2.03887 4.22079 19.4728 -2.65022 -3.55271e-015 12.608 -1.80115 3.54956 -0.48176 -2.11209 3.70204 19.5563 -0.329131 18.1121 -1.32371 -4.43389 13.7086 0 0 -28.1241 0.910807 1.03256 25.9307 0 0 3.80417 -0.973278 0.065654 23.5097 0 0 -4.60347 -0.863203 -2.79346 -3.48695 19.5563 -0.329131 -13.3558 0.586211 -1.70019 -13.7086 -2.84217e-014 0 20.235 3.60412 5.21338 -25.9307 0 0 -2.00572 -0.083091 0.121717 -23.5097 0 0 -1.98127 -0.108275 1.56836 9.00574 0 0 -1.18912 -5.55026 1.78279 0 -37.3387 0 -1.66733 15.4932 2.17386 0 -36.155 -5.68434e-014 3.43393 -12.4176 -1.93338 0 -5.85373 13.5086 -2.70223e-016 -3.72721e-017 -1.59028e-015 -9.00574 1.42109e-014 0 -1.95785 -0.205322 -0.058519 -3.55271e-015 -37.3387 2.84217e-014 8.32949 12.0269 1.82234 0 -36.155 0 -9.90945 -12.8891 -23.0616 0 -5.85373 13.5086 1.61513e-016 -4.96962e-017 -0 
0 0 0 0 0 -0 9.64307 74.4154 -204.839 0.521785 2.27235 5.69532 0 7.3847 0 -2.01213 -5.46464 -0.0880372 0 22.52 2.84217e-014 -0.886347 -0.622559 0.00932721 3.55271e-015 22.4276 2.03887 4.21367 19.4684 -2.65074 0 12.608 -1.80115 3.55446 -0.483342 -2.1115 3.70204 19.5563 -0.329131 18.1002 -1.30725 -4.43386 13.7086 0 0 -28.111 0.919907 1.01982 25.9307 -2.84217e-014 0 3.80831 -0.981754 0.064142 23.5097 0 0 -4.63053 -0.871578 -2.77823 -3.48695 19.5563 -0.329131 -13.3682 0.864364 -1.82517 -13.7086 0 2.84217e-014 20.1945 3.03238 5.46369 -25.9307 2.84217e-014 0 -1.82931 0.090673 0.132811 -23.5097 0 0 -2.08052 0.064654 1.5397 9.00574 0 -2.84217e-014 -1.18912 -5.55026 1.78279 0 -37.3387 -2.84217e-014 -1.66795 15.4922 2.17633 0 -36.155 -2.84217e-014 3.42058 -12.4199 -1.95202 -7.10543e-015 -5.85373 13.5086 7.92033e-017 3.72721e-017 -0 -9.00574 2.84217e-014 -2.84217e-014 -1.95785 -0.205322 -0.059058 0 -37.3387 2.84217e-014 8.33618 12.0271 1.79022 0 -36.155 -2.84217e-014 -9.93909 -12.8898 -23.0371 0 -5.85373 13.5086 6.21202e-016 -9.93923e-017 1.59028e-015 
0 0 0 0 0 -0 9.64307 74.4154 -204.838 0.521785 2.27235 5.69532 0 7.3847 0 -2.01213 -5.46464 -0.0880372 0 22.52 0 -0.882761 -0.619882 0.0093272 3.55271e-015 22.4276 2.03887 4.24333 19.4776 -2.6508 -3.55271e-015 12.608 -1.80115 3.5184 -0.501836 -2.11051 3.70204 19.5563 -0.329131 18.1135 -1.30555 -4.43386 13.7086 0 0 -28.1213 0.917321 1.03349 25.9307 -2.84217e-014 0 3.80694 -0.965594 0.0656303 23.5097 0 -2.84217e-014 -4.62663 -0.855537 -2.77865 -3.48695 19.5563 -0.329131 -13.3577 0.573608 -1.7017 -13.7086 0 2.84217e-014 20.2426 3.64815 5.20304 -25.9307 -2.84217e-014 -2.84217e-014 -2.01778 -0.09439 0.121361 -23.5097 -1.42109e-014 0 -1.98056 -0.120153 1.57292 9.00574 0 -2.84217e-014 -1.18912 -5.55026 1.78279 0 -37.3387 -2.84217e-014 -1.66186 15.4904 2.15802 -7.10543e-015 -36.155 2.84217e-014 3.44352 -12.4194 -1.92972 -7.10543e-015 -5.85373 13.5086 1.04051e-016 1.2424e-017 1.59028e-015 -9.00574 1.42109e-014 -2.84217e-014 -1.95782 -0.205322 -0.04936 0 -37.3387 0 8.33412 12.027 1.8001 3.55271e-015 -36.155 -2.84217e-014 -9.91708 -12.8854 -23.0482 0 -5.85373 13.5086 -3.47873e-016 9.93923e-017 -3.18055e-015 
0 0 0 0 0 -0 9.64307 74.4154 -204.837 0.521785 2.27235 5.69532 0 7.3847 0 -2.01213 -5.46464 -0.0880372 -3.55271e-015 22.52 0 -0.879039 -0.612752 0.00932719 -3.55271e-015 22.4276 2.03887 4.22623 19.5001 -2.65012 -3.55271e-015 12.608 -1.80115 3.53052 -0.544045 -2.10922 3.70204 19.5563 -0.329131 18.1186 -1.30822 -4.43386 13.7086 1.42109e-014 -2.84217e-014 -28.1202 0.89282 1.03184 25.9307 -2.84217e-014 0 3.78116 -0.961072 0.06753 23.5097 0 -2.84217e-014 -4.59254 -0.851837 -2.77986 -3.48695 19.5563 -0.329131 -13.3619 0.864599 -1.82455 -13.7086 2.84217e-014 0 20.1777 3.03378 5.46475 -25.9307 0 0 -1.8076 0.086871 0.136513 -23.5097 0 0 -2.10524 0.060518 1.54888 9.00574 0 0 -1.18919 -5.55026 1.78203 7.10543e-015 -37.3387 -2.84217e-014 -1.65837 15.4881 2.18565 7.10543e-015 -36.155 -2.84217e-014 3.41503 -12.418 -1.95712 -7.10543e-015 -5.85373 13.5086 1.0871e-017 -6.21202e-017 -1.59028e-015 -9.00574 2.84217e-014 0 -1.95781 -0.205322 -0.047722 0 -37.3387 0 8.32796 12.0268 1.82965 0 -36.155 2.84217e-014 -9.91679 -12.8802 -23.0665 7.10543e-015 -5.85373 13.5086 -3.10601e-016 1.98785e-016 -3.18055e-015 
0 0 0 0 0 -0 9.64301 74.4154 -204.835 0.521676 2.27234 5.69809 0 7.3847 0 -2.01213 -5.46464 -0.0880372 0 22.52 0 -0.875553 -0.608596 0.00932718 -3.55271e-015 22.4276 2.03887 4.22385 19.4654 -2.64782 -3.55271e-015 12.608 -1.80115 3.52307 -0.486824 -2.1077 3.70204 19.5563 -0.329131 18.1158 -1.31805 -4.43388 13.7086 0 0 -28.1203 0.913077 1.04335 25.9307 2.84217e-014 0 3.79438 -0.964481 0.0695803 23.5097 0 -2.84217e-014 -4.62838 -0.854304 -2.78113 -3.48695 19.5563 -0.329131 -13.3661 0.573602 -1.69322 -13.7086 -2.84217e-014 0 20.2504 3.66029 5.2046 -25.9307 0 -2.84217e-014 -2.02546 -0.107237 0.118705 -23.5097 1.42109e-014 0 -1.96301 -0.132364 1.56578 9.00574 1.42109e-014 -2.84217e-014 -1.18921 -5.55273 1.78102 0 -37.3387 2.84217e-014 -1.66845 15.4866 2.17368 0 -36.155 2.84217e-014 3.43417 -12.4187 -1.94026 7.10543e-015 -5.85373 13.5086 -1.72384e-016 2.48481e-017 -0 -9.00574 0 2.84217e-014 -1.95787 -0.205322 -0.064381 0 -37.3387 0 8.33314 12.0249 1.80513 0 -36.155 0 -9.91722 -12.8809 -23.04 0 -5.85373 13.5086 2.48481e-017 9.93923e-017 -3.18055e-015 
0 0 0 0 0 -0 9.64368 74.4154 -204.834 0.521796 2.27235 5.69506 0 7.3847 0 -2.01213 -5.46464 -0.0880372 0 22.52 0 -0.873197 -0.597542 0.00932716 0 22.4276 2.03887 4.25316 19.467 -2.64558 0 12.608 -1.80115 3.48164 -0.511131 -2.10609 3.70204 19.5563 -0.329131 18.1131 -1.31309 -4.4295 13.7086 1.42109e-014 -2.84217e-014 -28.1194 0.902426 1.03185 25.9307 -2.84217e-014 0 3.78915 -0.957642 0.0715201 23.5097 2.84217e-014 0 -4.61831 -0.847842 -2.78103 -3.48695 19.5563 -0.329131 -13.3584 0.578798 -1.70782 -13.7086 0 0 20.2381 3.64585 5.21585 -25.9307 0 0 -2.0116 -0.108769 0.127841 -23.5097 0 -2.84217e-014 -1.98446 -0.134269 1.56342 9.00574 0 0 -1.18934 -5.5518 1.78 0 -37.3387 0 -1.6627 15.4883 2.15984 0 -36.155 0 3.42491 -12.4286 -1.93942 0 -5.85373 13.5086 4.81432e-017 -1.2424e-017 -1.59028e-015 -9.00574 1.42109e-014 2.84217e-014 -1.95781 -0.205322 -0.046411 0 -37.3387 -2.84217e-014 8.3341 12.0139 1.80214 0 -36.155 -2.84217e-014 -9.90483 -12.889 -23.0457 7.10543e-015 -5.85373 13.5086 -4.96962e-017 -9.93923e-017 3.18055e-015 
